<svg xmlns="http://www.w3.org/2000/svg" viewBox="217.48313827683614 110.00696 363.2192618644068 365.94152" id="svg2" version="1.1" style="max-height: 500px" width="363.2192618644068" height="365.94152">
  <defs id="defs6">
    <clipPath id="clipPath16" clipPathUnits="userSpaceOnUse">
      <path id="path14" d="M 0,841.89 H 595.276 V 0 H 0 Z"/>
    </clipPath>
  </defs>
  
  <g transform="matrix(1.3333333,0,0,-1.3333333,0,1122.52)" id="g8">
    <g id="g10">
      <g clip-path="url(#clipPath16)" id="g12">
        <g transform="translate(297.8262,540.4452)" id="g18">
          <path id="path20" style="fill:none;stroke:#231f20;stroke-width:0.527;stroke-linecap:butt;stroke-linejoin:miter;stroke-miterlimit:4;stroke-dasharray:none;stroke-opacity:1" d="m 0,0 c 0,12.833 -60.722,18.967 -65.104,66.356 -1.455,15.727 5.982,22.098 7.598,41.168 1.615,19.071 -10.412,33.902 -10.412,33.902 l 21.228,22.403 c 0,0 16.796,-11.808 46.19,-13.623 l 0.336,0.031 c 29.394,1.816 46.193,13.623 46.193,13.623 l 21.227,-22.402 c 0,0 -12.031,-14.832 -10.414,-33.902 C 58.455,88.485 65.896,82.114 64.439,66.387 60.24,20.981 0.167,14.833 0.167,0 Z"/>
        </g>
        <g transform="translate(297.8179,548.2704)" id="g22">
          <path id="path24" style="fill:none;stroke:#231f20;stroke-width:0.527;stroke-linecap:butt;stroke-linejoin:miter;stroke-miterlimit:4;stroke-dasharray:12, 4, 6, 4, 6, 4;stroke-dashoffset:0;stroke-opacity:1" d="m 0,0 c 0,11.67 -55.217,17.248 -59.202,60.341 -1.323,14.301 5.44,20.095 6.909,37.436 1.469,17.342 -6.468,34.828 -6.468,34.828 l 16.303,15.373 c 0,0 15.274,-9.738 42.003,-11.389 l 0.306,0.029 c 26.73,1.651 42.006,11.388 42.006,11.388 l 16.302,-16.372 c 0,0 -7.941,-16.487 -6.47,-33.829 C 53.156,80.464 59.922,74.67 58.598,60.369 54.779,19.079 0.152,13.488 0.152,0 Z"/>
        </g>
        <g transform="translate(338.6904,689.6151)" id="g26">
          <path id="path28" style="fill:#231f20;fill-opacity:1;fill-rule:nonzero;stroke:none" d="m 0,0 c -0.143,-0.226 -0.491,-0.497 -1.041,-0.814 -1.421,-0.813 -2.383,-1.417 -2.891,-1.811 l -0.145,0.091 c 0.553,0.492 1.314,1.243 2.292,2.258 C -1,0.547 -0.429,0.845 -0.07,0.619 0.149,0.481 0.173,0.275 0,0"/>
        </g>
        <g transform="translate(343.2422,683.7635)" id="g30">
          <path id="path32" style="fill:#231f20;fill-opacity:1;fill-rule:nonzero;stroke:none" d="M 0,0 C 0.189,0.296 0.213,0.628 0.073,0.994 -0.062,1.36 -0.328,1.668 -0.724,1.915 -1.435,2.364 -2.193,2.553 -3.001,2.483 -3.812,2.412 -4.385,2.106 -4.728,1.564 -4.921,1.256 -5.007,0.866 -4.98,0.395 c 0.006,-0.187 0.07,-0.586 0.186,-1.201 1.135,-0.269 2.142,-0.331 3.008,-0.185 C -0.918,-0.845 -0.32,-0.514 0,0 m -6.074,-3.96 c 0.297,0.472 0.433,1.025 0.406,1.654 -0.013,0.181 -0.105,0.763 -0.285,1.749 -3.121,0.676 -5.144,0.287 -6.06,-1.167 -0.637,-1.011 -0.312,-1.923 0.974,-2.731 0.903,-0.571 1.846,-0.806 2.828,-0.711 0.977,0.098 1.69,0.499 2.137,1.206 m 6.466,3.335 c -0.624,-0.99 -2.351,-1.083 -5.18,-0.282 0.213,-0.833 0.315,-1.457 0.303,-1.874 -0.01,-0.419 -0.133,-0.816 -0.372,-1.19 -0.529,-0.838 -1.426,-1.321 -2.702,-1.443 -1.275,-0.126 -2.455,0.153 -3.533,0.837 -0.774,0.485 -1.288,1.057 -1.549,1.711 -0.255,0.653 -0.202,1.268 0.163,1.845 0.43,0.68 1.134,1.061 2.117,1.145 0.983,0.083 2.449,-0.111 4.405,-0.581 -0.213,0.905 -0.166,1.599 0.139,2.082 0.415,0.659 1.156,1.031 2.229,1.114 C -2.517,2.821 -1.537,2.584 -0.65,2.028 -0.103,1.681 0.272,1.252 0.472,0.744 0.671,0.233 0.649,-0.223 0.392,-0.625"/>
        </g>
        <g transform="translate(351.709,679.0936)" id="g34">
          <path id="path36" style="fill:#231f20;fill-opacity:1;fill-rule:nonzero;stroke:none" d="m 0,0 c -0.162,-0.259 -0.524,-0.528 -1.084,-0.81 -0.46,-0.226 -0.871,-0.389 -1.243,-0.491 -0.439,-0.133 -1.387,-0.359 -2.848,-0.671 -3.652,-0.788 -6.041,-1.97 -7.163,-3.55 -0.221,0.219 -0.465,0.409 -0.724,0.575 -0.239,0.149 -0.475,0.259 -0.713,0.332 0.884,0.965 2.045,1.687 3.475,2.158 1.435,0.472 3.5,0.824 6.203,1.056 1.451,0.122 2.536,0.412 3.257,0.87 -0.78,-0.343 -1.577,-0.252 -2.393,0.259 -0.422,0.266 -0.897,0.739 -1.428,1.418 -0.531,0.682 -0.897,1.084 -1.098,1.213 -0.171,0.106 -0.367,0.162 -0.59,0.169 L -6.463,2.459 C -7.45,1.864 -8.042,1.629 -8.237,1.752 c -0.071,0.043 -0.08,0.099 -0.04,0.166 0.18,0.281 0.783,0.508 1.814,0.683 0.287,0.184 0.491,0.366 0.603,0.549 0.049,0.075 0.089,0.18 0.13,0.315 l 0.019,0.036 c 0.045,0.068 0.1,0.081 0.166,0.038 0.073,-0.047 0.078,-0.127 0.004,-0.241 -0.133,-0.211 -0.362,-0.43 -0.688,-0.657 0.682,0.081 1.253,-0.024 1.713,-0.314 0.271,-0.17 0.745,-0.669 1.421,-1.498 0.377,-0.464 0.723,-0.796 1.036,-0.995 0.781,-0.491 1.349,-0.458 1.705,0.106 0.029,0.043 0.055,0.1 0.081,0.162 l 0.031,0.051 c 0.061,0.096 0.13,0.119 0.209,0.069 C 0.05,0.168 0.063,0.096 0,0"/>
        </g>
        <g transform="translate(249.146,684.8177)" id="g38">
          <path id="path40" style="fill:#231f20;fill-opacity:1;fill-rule:nonzero;stroke:none" d="M 0,0 C 0.472,-0.471 0.697,-1.086 0.673,-1.843 0.66,-2.389 0.579,-2.889 0.441,-3.345 0.303,-3.802 -0.031,-4.644 -0.558,-5.87 -1.215,-7.4 -1.5,-8.626 -1.412,-9.542 c 0.063,0.548 0.277,1.002 0.639,1.365 0.283,0.281 0.734,0.587 1.353,0.912 0.531,0.277 0.905,0.522 1.116,0.735 0.291,0.288 0.442,0.677 0.453,1.162 0.012,0.485 -0.119,0.952 -0.392,1.404 -0.031,0.053 -0.034,0.093 -0.005,0.119 0.013,0.007 0.028,0.006 0.04,0 0.196,-0.196 0.34,-0.571 0.435,-1.134 C 2.395,-6.003 2.161,-6.833 1.523,-7.471 1.287,-7.706 0.866,-7.984 0.259,-8.31 c -0.725,-0.389 -1.166,-0.657 -1.317,-0.81 -0.355,-0.356 -0.409,-0.694 -0.161,-1.02 0.073,-0.082 0.088,-0.149 0.046,-0.189 -0.026,-0.026 -0.054,-0.026 -0.081,0 -0.162,0.162 -0.244,0.518 -0.251,1.072 -0.006,0.478 0.036,0.917 0.125,1.313 0.104,0.418 0.335,1.129 0.7,2.133 0.457,1.265 0.663,2.401 0.628,3.417 -0.037,1.009 -0.312,1.773 -0.826,2.288 -0.216,0.215 -0.467,0.308 -0.751,0.275 -0.288,-0.033 -0.566,-0.183 -0.836,-0.457 -0.601,-0.599 -0.948,-1.555 -1.035,-2.87 -0.088,-1.315 0.131,-2.237 0.658,-2.761 0.384,-0.385 0.805,-0.345 1.264,0.115 0.371,0.369 0.606,0.963 0.703,1.773 0.096,0.816 0.02,1.514 -0.229,2.102 -0.022,0.043 -0.026,0.076 -0.006,0.096 0.021,0.021 0.041,0.022 0.061,0 0.146,-0.146 0.246,-0.542 0.298,-1.182 0.046,-0.561 -0.003,-1.107 -0.145,-1.637 -0.143,-0.531 -0.348,-0.929 -0.611,-1.194 -0.264,-0.259 -0.552,-0.392 -0.866,-0.396 -0.317,0 -0.603,0.126 -0.861,0.385 -0.638,0.639 -0.812,1.657 -0.522,3.058 0.236,1.142 0.651,2.01 1.243,2.603 0.401,0.402 0.834,0.617 1.299,0.656 C -0.748,0.498 -0.345,0.345 0,0"/>
        </g>
        <g transform="translate(254.8091,693.2411)" id="g42">
          <path id="path44" style="fill:#231f20;fill-opacity:1;fill-rule:nonzero;stroke:none" d="m 0,0 c 0.027,-0.025 0.025,-0.053 -0.006,-0.086 -0.01,-0.01 -0.03,-0.023 -0.06,-0.041 -0.216,-0.099 -0.401,-0.225 -0.551,-0.374 -0.89,-0.89 -1.311,-2.756 -1.265,-5.595 0.026,-1.395 0.011,-2.389 -0.041,-2.985 -0.05,-0.596 -0.178,-1.222 -0.377,-1.876 0.3,0.508 0.779,1.089 1.441,1.75 0.242,0.242 0.447,0.438 0.624,0.586 -0.098,0.477 -0.265,1.459 -0.502,2.95 -0.202,1.28 -0.378,2.13 -0.521,2.549 -0.023,0.058 -0.023,0.098 0.002,0.122 0.018,0.009 0.029,0.009 0.041,0 0.007,-0.004 0.013,-0.021 0.02,-0.042 l 0.05,-0.153 c 0.043,-0.125 0.239,-0.816 0.593,-2.076 0.35,-1.224 0.645,-2.173 0.884,-2.847 0.223,0.2 0.425,0.386 0.606,0.568 0.361,0.358 0.573,0.73 0.637,1.11 0.069,0.384 -0.022,0.7 -0.266,0.943 -0.088,0.089 -0.213,0.162 -0.365,0.218 -0.021,0.008 -0.041,0.023 -0.062,0.046 -0.025,0.02 -0.025,0.044 -0.005,0.064 0.08,0.079 0.246,-0.007 0.498,-0.259 0.688,-0.688 0.373,-1.691 -0.943,-3.006 0.356,-0.949 0.698,-1.656 1.029,-2.121 -0.166,-0.083 -0.315,-0.19 -0.438,-0.316 -0.16,-0.155 -0.309,-0.348 -0.452,-0.574 -0.312,0.675 -0.551,1.486 -0.723,2.427 -0.077,-0.069 -0.273,-0.239 -0.588,-0.507 -0.448,-0.359 -0.77,-0.635 -0.96,-0.828 -0.19,-0.189 -0.385,-0.413 -0.59,-0.677 -0.153,-0.66 -0.352,-1.112 -0.596,-1.356 -0.057,-0.058 -0.103,-0.071 -0.136,-0.038 -0.115,0.116 0.091,0.57 0.62,1.364 0.191,0.754 0.308,1.423 0.352,2.009 0.044,0.555 0.052,1.547 0.03,2.987 -0.039,2.882 0.394,4.773 1.293,5.672 0.127,0.128 0.27,0.233 0.429,0.319 C -0.136,0.013 -0.039,0.04 0,0"/>
        </g>
        <g transform="translate(254.2129,676.7338)" id="g46">
          <path id="path48" style="fill:#231f20;fill-opacity:1;fill-rule:nonzero;stroke:none" d="M 0,0 C 0.029,-0.031 0.262,-1.036 0.689,-3.012 1.032,-4.6 1.311,-5.742 1.532,-6.432 1.752,-7.125 2.035,-7.767 2.383,-8.354 2.23,-8.447 2.11,-8.544 2.021,-8.633 1.922,-8.732 1.758,-8.938 1.525,-9.248 c -0.45,0.914 -0.799,2.683 -1.048,5.304 -0.153,1.609 -0.298,2.718 -0.437,3.34 0.171,-1.95 0.148,-3.71 -0.061,-5.293 -0.133,-1.022 -0.258,-1.591 -0.372,-1.707 -0.029,-0.026 -0.053,-0.03 -0.073,-0.006 -0.025,0.02 -0.025,0.062 -0.001,0.119 0.472,1.262 0.612,3.636 0.414,7.128 l -0.004,0.14 c -0.007,0.137 -0.003,0.205 0.008,0.219 C -0.031,0.013 -0.015,0.013 0,0"/>
        </g>
        <g transform="translate(259.0498,681.4086)" id="g50">
          <path id="path52" style="fill:#231f20;fill-opacity:1;fill-rule:nonzero;stroke:none" d="m 0,0 c -0.465,-0.037 -0.9,-0.253 -1.299,-0.653 -0.592,-0.593 -1.005,-1.463 -1.244,-2.605 -0.29,-1.401 -0.117,-2.417 0.521,-3.057 0.258,-0.259 0.548,-0.385 0.863,-0.383 0.316,-0.002 0.601,0.131 0.867,0.392 0.262,0.266 0.467,0.664 0.608,1.195 0.145,0.529 0.192,1.076 0.146,1.638 -0.053,0.644 -0.15,1.036 -0.296,1.182 -0.02,0.02 -0.04,0.02 -0.063,0 -0.019,-0.02 -0.02,-0.053 0.006,-0.1 0.249,-0.584 0.326,-1.285 0.23,-2.095 -0.097,-0.817 -0.332,-1.408 -0.703,-1.776 -0.46,-0.462 -0.882,-0.498 -1.267,-0.117 -0.524,0.529 -0.744,1.448 -0.656,2.762 0.089,1.313 0.434,2.272 1.035,2.873 0.272,0.27 0.55,0.421 0.836,0.454 0.283,0.034 0.533,-0.056 0.751,-0.273 0.515,-0.517 0.79,-1.28 0.829,-2.292 0.034,-1.014 -0.175,-2.152 -0.63,-3.414 -0.364,-1.006 -0.597,-1.713 -0.7,-2.131 -0.09,-0.399 -0.131,-0.837 -0.126,-1.315 0.006,-0.556 0.089,-0.914 0.252,-1.074 0.027,-0.026 0.053,-0.026 0.083,0 0.04,0.045 0.023,0.107 -0.05,0.193 -0.248,0.323 -0.192,0.662 0.163,1.016 0.151,0.153 0.591,0.423 1.315,0.814 0.611,0.322 1.03,0.601 1.265,0.837 0.638,0.638 0.873,1.468 0.702,2.493 C 3.347,-4.878 3.204,-4.5 3.006,-4.303 2.995,-4.3 2.979,-4.296 2.965,-4.303 2.938,-4.333 2.938,-4.374 2.971,-4.422 3.244,-4.874 3.374,-5.343 3.363,-5.828 3.35,-6.312 3.198,-6.698 2.906,-6.99 2.696,-7.202 2.327,-7.448 1.793,-7.723 1.175,-8.048 0.724,-8.351 0.44,-8.637 0.077,-8.998 -0.135,-9.454 -0.199,-10 -0.286,-9.084 0,-7.86 0.657,-6.326 c 0.525,1.226 0.86,2.063 0.998,2.521 0.138,0.458 0.218,0.956 0.234,1.503 0.024,0.758 -0.202,1.375 -0.674,1.843 C 0.872,-0.114 0.465,0.039 0,0"/>
        </g>
        <g transform="translate(248.7388,672.4662)" id="g54">
          <path id="path56" style="fill:#231f20;fill-opacity:1;fill-rule:nonzero;stroke:none" d="M 0,0 C 3.556,3.553 6.917,7.107 9.992,10.951"/>
        </g>
        <g transform="translate(248.7388,672.1605)" id="g58">
          <path id="path60" style="fill:#231f20;fill-opacity:1;fill-rule:nonzero;stroke:none" d="m 0,0 c 3.495,3.502 6.882,7.099 9.992,10.95 0.113,0.139 -0.076,0.517 0,0.612 C 6.882,7.71 3.495,4.114 0,0.612 -0.12,0.492 0.074,0.074 0,0"/>
        </g>
        <g transform="translate(265.2637,578.6166)" id="g62">
          <path id="path64" style="fill:#231f20;fill-opacity:1;fill-rule:nonzero;stroke:none" d="M 0,0 C -0.875,-1.516 -0.872,-1.644 0.122,-2.219 2.628,-3.664 4.734,-3.453 5.777,-1.644 6.746,0.028 5.844,2.044 3.535,3.38 3.082,3.641 2.644,3.852 2.305,3.992 Z M -1.237,6.599 C -0.903,6.445 -0.425,6.2 0.203,5.867 1.422,5.231 2.324,4.755 2.93,4.414 3.238,4.255 3.536,4.078 3.839,3.906 5.324,3.047 6.336,2.341 7.148,1.56 8.824,-0.011 9.292,-1.695 8.461,-3.136 7.739,-4.386 6.125,-4.969 4.324,-4.612 c -1.483,0.276 -2.597,0.768 -5.18,2.26 l -4.281,2.469 0.285,0.492 0.135,-0.078 c 1.064,-0.612 1.353,-0.526 2.006,0.599 l 1.691,2.932 c 0.648,1.125 0.59,1.399 -0.492,2.024 l -0.136,0.078 0.292,0.5 z"/>
        </g>
        <g transform="translate(327.9805,576.2855)" id="g66">
          <path id="path68" style="fill:#231f20;fill-opacity:1;fill-rule:nonzero;stroke:none" d="m 0,0 c 0.336,0.141 0.779,0.352 1.232,0.612 2.307,1.336 3.205,3.352 2.241,5.024 -1.043,1.809 -3.147,2.02 -5.657,0.575 -0.99,-0.575 -1,-0.703 -0.121,-2.219 z m -3.658,-2.672 -0.295,0.5 0.133,0.078 c 1.084,0.625 1.146,0.899 0.496,2.024 l -1.694,2.932 c -0.65,1.125 -0.937,1.211 -2.005,0.599 L -7.156,3.383 -7.439,3.875 -3.164,6.344 C -0.578,7.836 0.535,8.328 2.02,8.604 3.816,8.961 5.436,8.378 6.156,7.128 6.988,5.687 6.52,4.003 4.842,2.433 4.031,1.651 3.02,0.945 1.531,0.086 1.232,-0.086 0.93,-0.263 0.625,-0.422 0.02,-0.763 -0.887,-1.239 -2.102,-1.875 -2.73,-2.208 -3.205,-2.453 -3.543,-2.606 Z"/>
        </g>
        <g transform="translate(298.813,625.4208)" id="g70">
          <path id="path72" style="fill:#231f20;fill-opacity:1;fill-rule:nonzero;stroke:none" d="m 0,0 c 0.183,-0.925 0.871,-1.754 1.452,-2.467 0.644,-0.791 1.352,-1.58 2.17,-2.197 0.334,-0.253 1.086,-0.163 1.476,-0.143 0.105,0.006 1.023,0.112 0.838,0.251 -0.754,0.57 -1.411,1.287 -2.016,2.01 C 3.314,-1.82 2.588,-0.955 2.4,0 2.317,0.419 -0.032,0.161 0,0"/>
        </g>
        <g transform="translate(296.1831,640.8851)" id="g74">
          <path id="path76" style="fill:#231f20;fill-opacity:1;fill-rule:nonzero;stroke:none" d="m 0,0 c -2.545,-4.426 3.539,-6.481 6.914,-6.417 1.633,0.032 3.461,0.319 4.485,1.734 1.624,2.243 1.396,6.173 0.789,8.717 -1.274,5.345 -7.705,6.591 -12.438,5.829 -6.518,-1.05 -11.094,-6.516 -14.099,-12.011 -6.399,-11.703 -8.61,-30.102 3.119,-39.371 9.116,-7.204 28.01,-4.856 27.733,9.477 -0.129,6.701 -6.744,8.354 -12.368,7.329 -3.202,-0.583 -6.383,-2.705 -7.234,-6.029 -0.893,-3.486 1.839,-6.139 5.059,-6.358 0.813,-0.055 2.313,0.28 0.639,0.394 -2.959,0.2 -3.958,4.439 -3.061,6.663 1.061,2.629 3.513,4.571 6.295,5.042 6,1.015 8.854,-3.961 8.145,-9.127 -0.679,-4.944 -4.267,-8.8 -8.963,-10.376 -6.254,-2.1 -12.82,1.135 -16.855,5.931 -6.57,7.809 -6.288,19.636 -3.356,28.864 1.451,4.568 3.676,9.084 6.727,12.8 3.594,4.376 9.787,8.774 15.45,5.056 3.483,-2.286 4.293,-8.88 2.27,-12.412 C 6.936,-8.307 0.018,-4.142 2.4,0 2.354,-0.08 0.306,0.532 0,0"/>
        </g>
        <g transform="translate(295.9316,647.0394)" id="g78">
          <path id="path80" style="fill:#231f20;fill-opacity:1;fill-rule:nonzero;stroke:none" d="M 0,0 C 0.703,0.595 1.414,1.182 2.179,1.696 2.884,2.169 4.293,3.169 5.185,2.968 5.707,2.85 6.295,2.814 6.826,2.895 6.94,2.912 7.736,3.065 7.257,3.173 3.478,4.027 0.53,2.516 -2.314,0.108 -2.273,0.143 -0.479,-0.405 0,0"/>
        </g>
        <g transform="translate(294.7417,654.5653)" id="g82">
          <path id="path84" style="fill:#231f20;fill-opacity:1;fill-rule:nonzero;stroke:none" d="m 0,0 c 0.397,-1.403 1.583,-2.041 2.872,-2.508 1.123,-0.407 2.92,-0.632 3.338,-1.948 0.151,-0.472 2.424,-0.075 2.401,0 C 8.243,-3.297 6.903,-2.953 5.872,-2.611 4.414,-2.129 2.863,-1.636 2.4,0 2.27,0.459 -0.028,0.099 0,0"/>
        </g>
        <g transform="translate(274.4199,619.9476)" id="g86">
          <path id="path88" style="fill:#231f20;fill-opacity:1;fill-rule:nonzero;stroke:none" d="m 0,0 c 2.309,1.828 5.028,4.461 5.572,7.486 0.03,0.166 -2.324,0.419 -2.4,0 C 2.632,4.484 -0.016,1.928 -2.314,0.109 -2.528,-0.061 -1.532,-0.139 -1.476,-0.142 -1.111,-0.165 -0.32,-0.253 0,0"/>
        </g>
        <g transform="translate(282.9697,620.5975)" id="g90">
          <path id="path92" style="fill:#231f20;fill-opacity:1;fill-rule:nonzero;stroke:none" d="m 0,0 c -1.715,1.825 -2.639,4.388 -2.978,6.836 -0.053,0.388 -2.428,0.206 -2.399,0 0.346,-2.509 1.308,-5.077 3.063,-6.944 C -1.919,-0.528 0.018,-0.019 0,0"/>
        </g>
        <g transform="translate(297.354,599.035)" id="g94">
          <path id="path96" style="fill:#231f20;fill-opacity:1;fill-rule:nonzero;stroke:none" d="m 0,0 c -1.521,-2.408 -4.569,-1.918 -7.028,-2.345 -0.501,-0.087 -0.286,-0.152 0,-0.288 0.408,-0.196 1.26,-0.076 1.697,0 C -2.623,-2.164 0.719,-2.66 2.4,0 2.334,-0.104 0.338,0.535 0,0"/>
        </g>
        <g transform="translate(299.2734,591.8929)" id="g98">
          <path id="path100" style="fill:#231f20;fill-opacity:1;fill-rule:nonzero;stroke:none" d="M 0,0 C -1.783,0.639 -3.197,1.489 -4.398,2.945 -5.167,3.876 -5.855,4.474 -7.063,4.756 -7.586,4.878 -8.171,4.901 -8.705,4.829 -8.823,4.813 -9.612,4.661 -9.135,4.55 -7.83,4.245 -7.26,3.456 -6.434,2.495 -5.268,1.137 -3.733,0.39 -2.072,-0.206 -1.59,-0.378 -0.93,-0.347 -0.43,-0.279 -0.283,-0.259 0.451,-0.162 0,0"/>
        </g>
        <g transform="translate(275.9761,643.4393)" id="g102">
          <path id="path104" style="fill:#231f20;fill-opacity:1;fill-rule:nonzero;stroke:none" d="m 0,0 c 1.442,-1.397 2.545,-3.559 1.663,-5.588 -1.246,-2.868 -4.479,-1.098 -5.01,1.213 -0.343,1.492 -0.148,3.136 0.354,4.571 0.849,2.427 3.15,4.498 5.826,2.884 1.713,-1.034 2.917,-2.978 4.519,-4.197 1.228,-0.934 2.565,-1.555 4.09,-1.797 3.468,-0.548 6.588,0.456 9.23,2.736 -0.771,0.036 -1.542,0.072 -2.314,0.108 -4.913,-4.713 -5.471,-12.36 -5.674,-18.799 -0.232,-7.383 1.377,-15.866 -2.951,-22.43 -2.46,-3.731 -7.047,-7.328 -11.562,-4.984 -3.266,1.696 -4.904,4.312 -5.209,7.952 -0.154,1.848 0.556,8.288 3.755,7.012 1.23,-0.49 1.895,-2.389 1.972,-3.588 0.121,-1.884 -0.972,-3.243 -2.56,-4.135 0.147,0.083 1.728,-0.437 2.315,-0.108 2.67,1.499 3.606,4.663 1.478,7.14 -1.224,1.425 -3.297,1.787 -5.088,1.493 -5.566,-0.911 -5.134,-9.946 -2.397,-13.308 3.637,-4.471 10.661,-5.006 15.25,-1.924 6.833,4.588 7.587,12.618 7.454,20.191 -0.143,8.11 -0.854,19.255 5.531,25.38 C 20.669,-0.182 18.806,0.316 18.358,-0.07 16.694,-1.505 14.707,-2.828 12.375,-2.471 10.849,-2.237 9.361,-0.83 8.283,0.18 6.375,1.967 4.913,3.91 2.167,4.245 -1.752,4.723 -4.984,2.892 -5.742,-1.131 c -0.771,-4.098 1.262,-6.629 5.338,-6.532 1.394,0.033 3.16,0.24 4.092,1.415 1.625,2.05 0.204,4.827 -1.374,6.356 C 1.888,0.521 0.001,-0.002 0,0"/>
        </g>
        <g transform="translate(312.0195,640.7933)" id="g106">
          <path id="path108" style="fill:#231f20;fill-opacity:1;fill-rule:nonzero;stroke:none" d="M 0,0 C -1.752,-2.833 -0.098,-6.332 3.24,-6.648 5.605,-6.872 7.803,-6.09 9.224,-4.105 12.412,0.351 8.565,7.011 3.412,7.377 -2.922,7.828 -7.156,2.365 -9.838,-2.723 c -3.341,-6.336 -4.256,-14.618 -3.337,-21.682 1.227,-9.431 7.964,-23.34 19.802,-20.424 7.433,1.832 7.937,14.421 2.538,18.654 -3.788,2.97 -10.734,1.542 -12.765,-2.822 -2.464,-5.3 5.865,-11.349 9.512,-6.464 -0.108,-0.145 -2.003,0.532 -2.4,0 -1.769,-2.371 -4.439,1.027 -5.031,2.869 -0.892,2.782 1.113,5.591 3.511,6.835 3.612,1.873 6.493,-1.509 7.558,-4.605 1.506,-4.383 0.938,-12.65 -4.557,-14.145 -4.208,-1.145 -9.069,3.736 -11.139,6.835 -2.343,3.51 -3.706,7.644 -4.408,11.782 -1.642,9.669 0.272,20.657 6.557,28.35 C -2.483,4.313 0.39,7.405 3.099,6.871 5.496,6.399 7.181,3.487 7.698,1.324 8.273,-1.077 7.752,-3.669 5.733,-5.261 4.067,-6.574 2.768,-6.085 1.917,-3.959 1.359,-2.565 1.633,-1.24 2.4,0 2.339,-0.099 0.33,0.535 0,0"/>
        </g>
        <g transform="translate(316.9248,611.5809)" id="g110">
          <path id="path112" style="fill:#231f20;fill-opacity:1;fill-rule:nonzero;stroke:none" d="m 0,0 c 3.121,-1.723 4.577,-5.396 5.051,-8.766 0.054,-0.388 2.428,-0.203 2.4,0 C 6.972,-5.357 5.471,-1.635 2.313,0.108 1.916,0.328 1.275,0.278 0.838,0.25 0.735,0.244 -0.184,0.101 0,0"/>
        </g>
        <g transform="translate(328.8105,611.7552)" id="g114">
          <path id="path116" style="fill:#231f20;fill-opacity:1;fill-rule:nonzero;stroke:none" d="m 0,0 c -2.094,0.289 -4.045,0.094 -5.192,-1.871 -1.181,-2.022 -1.413,-4.54 -1.674,-6.82 -0.025,-0.215 2.356,-0.381 2.399,0 0.17,1.48 0.351,2.963 0.738,4.405 0.21,0.78 0.465,1.562 0.859,2.271 0.214,0.386 0.451,0.763 0.769,1.072 0.172,0.167 1.029,0.568 0.404,0.655 0.47,-0.065 1.255,-0.212 1.697,0 0.265,0.126 0.552,0.212 0,0.288"/>
        </g>
        <g transform="translate(260.9766,609.4598)" id="g118">
          <path id="path120" style="fill:#231f20;fill-opacity:1;fill-rule:nonzero;stroke:none" d="m 0,0 c 3.895,-0.146 5.343,-5.411 6.533,-8.318 0.205,-0.501 2.406,-0.016 2.4,0 C 7.239,-4.179 5.776,0.201 0.638,0.394 -0.171,0.424 -1.679,0.063 0,0"/>
        </g>
        <g transform="translate(266.167,644.6976)" id="g122">
          <path id="path124" style="fill:#231f20;fill-opacity:1;fill-rule:nonzero;stroke:none" d="M 0,0 C 1.903,-0.879 2.993,-2.695 4.007,-4.441 4.164,-4.71 4.947,-4.645 5.208,-4.645 5.29,-4.646 6.468,-4.546 6.407,-4.441 5.375,-2.664 4.252,-0.787 2.314,0.109 1.882,0.309 1.303,0.275 0.838,0.251 0.728,0.246 -0.174,0.081 0,0"/>
        </g>
        <g transform="translate(274.3931,642.5594)" id="g126">
          <path id="path128" style="fill:#231f20;fill-opacity:1;fill-rule:nonzero;stroke:none" d="m 0,0 c -1.469,-0.229 -3.587,-0.782 -4.219,-2.303 -0.002,-0.005 2.189,-0.509 2.4,0 0.531,1.278 2.265,1.819 3.516,2.014 0.418,0.066 0.381,0.207 0,0.289 C 1.162,0.114 0.538,0.084 0,0"/>
        </g>
        <g transform="translate(316.1123,642.1805)" id="g130">
          <path id="path132" style="fill:#231f20;fill-opacity:1;fill-rule:nonzero;stroke:none" d="m 0,0 c 1.793,-1.065 3.239,-2.207 3.29,-4.446 0.007,-0.313 2.406,-0.289 2.4,0 C 5.639,-2.162 4.145,-0.979 2.314,0.108 1.928,0.338 1.269,0.273 0.838,0.251 0.734,0.246 -0.184,0.109 0,0"/>
        </g>
        <g transform="translate(325.1455,642.0682)" id="g134">
          <path id="path136" style="fill:#231f20;fill-opacity:1;fill-rule:nonzero;stroke:none" d="m 0,0 c -2.383,-0.83 -4.38,-2.179 -5.743,-4.333 -0.072,-0.114 1.116,-0.204 1.2,-0.204 0.272,-0.001 1.024,-0.073 1.2,0.204 1.28,2.024 3.172,3.346 5.415,4.127 C 2.534,-0.045 1.753,0.058 1.642,0.073 1.151,0.14 0.479,0.167 0,0"/>
        </g>
        <g transform="translate(288.0522,624.9305)" id="g138">
          <path id="path140" style="fill:#231f20;fill-opacity:1;fill-rule:nonzero;stroke:none" d="M 0,0 C 4.265,-1.939 9.211,-2.166 13.526,-0.37 13.308,-0.46 11.848,0.003 11.211,-0.262 8.167,-1.528 5.264,-1.232 2.314,0.108 1.7,0.388 0.188,-0.086 0,0"/>
        </g>
        <g transform="translate(287.9399,622.6478)" id="g142">
          <path id="path144" style="fill:#231f20;fill-opacity:1;fill-rule:nonzero;stroke:none" d="M 0,0 C 3.681,-2.25 11.394,-3.092 14.715,0.215 14.712,0.212 12.827,0.747 12.401,0.324 9.816,-2.25 5.218,-1.667 2.314,0.108 1.756,0.45 0.116,-0.071 0,0"/>
        </g>
        <g transform="translate(286.6064,619.8993)" id="g146">
          <path id="path148" style="fill:#231f20;fill-opacity:1;fill-rule:nonzero;stroke:none" d="m 0,0 c 2.396,0.779 4.085,2.535 4.429,5.067 0.027,0.198 -2.346,0.393 -2.4,0 C 1.708,2.707 0.197,0.943 -2.072,0.206 -2.54,0.054 -1.747,-0.061 -1.642,-0.073 -1.136,-0.132 -0.494,-0.161 0,0"/>
        </g>
      </g>
    </g>
  </g>
</svg>